# xmcd CD database file
#
# Track frame offsets:
#	150
#	13840
#	35012
#	59927
#	78022
#	99275
#	122027
#	144540
#	160192
#	182817
#	199545
#
# Disc length: 2910 seconds
#
# Revision: 0
# Processed by: cddbd v1.5.2PL0 Copyright (c) Steve Scherf et al.
# Submitted via: CDex 1.70beta2
#
DISCID=920b5c0b
DTITLE=Get The Cat - Get The Cat
DYEAR=2007
DGENRE=Blues
TTITLE0=Turn the music on
TTITLE1=When my ship comes in
TTITLE2=Love’s got a million faces
TTITLE3=Prove me wrong
TTITLE4=Care for me
TTITLE5=Look what’s become of you 
TTITLE6=Wrong place, wrong time
TTITLE7=I’ve to a plan
TTITLE8=Billion dollar blues
TTITLE9=You only made a fool of yourself
TTITLE10=Love’s got a million faces (remix)
EXTD=YEAR: 2007
EXTT0=
EXTT1=
EXTT2=
EXTT3=
EXTT4=
EXTT5=
EXTT6=
EXTT7=
EXTT8=
EXTT9=
EXTT10=
PLAYORDER=
